<svg xmlns="http://www.w3.org/2000/svg" xmlns:xlink="http://www.w3.org/1999/xlink" width="797" zoomAndPan="magnify" viewBox="0 0 597.75 319.499995" height="426" preserveAspectRatio="xMidYMid meet" version="1.0"><defs><g/><clipPath id="68996c302d"><path d="M 0.34375 0.574219 L 318.328125 0.574219 L 318.328125 318.558594 L 0.34375 318.558594 Z M 0.34375 0.574219 " clip-rule="nonzero"/></clipPath><clipPath id="611d47a266"><path d="M 159.335938 0.574219 C 71.527344 0.574219 0.34375 71.757812 0.34375 159.566406 C 0.34375 247.375 71.527344 318.558594 159.335938 318.558594 C 247.144531 318.558594 318.328125 247.375 318.328125 159.566406 C 318.328125 71.757812 247.144531 0.574219 159.335938 0.574219 " clip-rule="nonzero"/></clipPath></defs><g clip-path="url(#68996c302d)"><g clip-path="url(#611d47a266)"><path fill="#ffffff" d="M 0.34375 0.574219 L 318.328125 0.574219 L 318.328125 318.558594 L 0.34375 318.558594 Z M 0.34375 0.574219 " fill-opacity="1" fill-rule="nonzero"/></g></g><g fill="#f05340" fill-opacity="1"><g transform="translate(22.897656, 217.738418)"><g><path d="M -3.8125 0 L 28.609375 -118.546875 L 39.359375 -62 L 51.75 -62 L 35.84375 -144.421875 L 87.390625 -144.421875 L 115.421875 0 L 63.953125 0 L 54.390625 -49.015625 L 41.984375 -49.015625 L 51.5625 0 Z M -3.8125 0 "/></g></g></g><g fill="#f05340" fill-opacity="1"><g transform="translate(138.691921, 217.738418)"><g><path d="M 50.96875 -102.828125 L 64.84375 -102.828125 L 64.84375 -88.765625 L 50.96875 -88.765625 L 50.96875 0 L 11.234375 0 L 11.234375 -88.765625 L -2.828125 -88.765625 L 50.96875 -144.421875 Z M 50.96875 -102.828125 "/></g></g></g><g fill="#f05340" fill-opacity="1"><g transform="translate(203.521088, 217.738418)"><g><path d="M 45.40625 0 L 5.5625 0 L 5.5625 -143.546875 L 45.40625 -143.546875 Z M 56.4375 -102.828125 L 61.21875 -102.828125 C 75.09375 -102.828125 84.390625 -100.316406 89.109375 -95.296875 C 93.828125 -90.285156 96.1875 -80.265625 96.1875 -65.234375 L 96.1875 0 L 56.4375 0 Z M 56.4375 -102.828125 "/></g></g></g><g fill="#ffffff" fill-opacity="1"><g transform="translate(317.605459, 216.097721)"><g><path d="M 57.195312 0.675781 C 43.488281 0.675781 41.121094 -9.644531 41.121094 -37.566406 L 92.5625 -37.734375 C 92.5625 -70.226562 82.578125 -80.886719 52.796875 -80.886719 C 26.566406 -80.886719 4.738281 -69.042969 4.738281 -38.75 C 4.738281 -9.136719 20.984375 2.707031 51.949219 2.707031 C 72.257812 2.707031 84.609375 -5.921875 90.027344 -19.800781 L 88.839844 -20.136719 C 85.289062 -10.324219 74.457031 0.675781 57.195312 0.675781 Z M 52.457031 -79.535156 C 58.550781 -79.535156 60.242188 -69.378906 60.242188 -38.921875 L 41.121094 -38.921875 L 41.121094 -39.089844 C 41.121094 -69.378906 44.167969 -79.535156 52.457031 -79.535156 Z M 52.457031 -79.535156 "/></g></g></g><g fill="#ffffff" fill-opacity="1"><g transform="translate(414.221838, 216.097721)"><g><path d="M 57.195312 0.675781 C 43.488281 0.675781 41.121094 -9.644531 41.121094 -37.566406 L 92.5625 -37.734375 C 92.5625 -70.226562 82.578125 -80.886719 52.796875 -80.886719 C 26.566406 -80.886719 4.738281 -69.042969 4.738281 -38.75 C 4.738281 -9.136719 20.984375 2.707031 51.949219 2.707031 C 72.257812 2.707031 84.609375 -5.921875 90.027344 -19.800781 L 88.839844 -20.136719 C 85.289062 -10.324219 74.457031 0.675781 57.195312 0.675781 Z M 52.457031 -79.535156 C 58.550781 -79.535156 60.242188 -69.378906 60.242188 -38.921875 L 41.121094 -38.921875 L 41.121094 -39.089844 C 41.121094 -69.378906 44.167969 -79.535156 52.457031 -79.535156 Z M 52.457031 -79.535156 "/></g></g></g><g fill="#ffffff" fill-opacity="1"><g transform="translate(510.838218, 216.097721)"><g><path d="M 69.378906 -80.886719 C 60.75 -80.886719 50.765625 -72.765625 47.550781 -52.964844 L 47.550781 -81.902344 L 46.875 -81.902344 C 38.582031 -73.609375 25.042969 -68.535156 2.367188 -67.859375 L 2.367188 -66.671875 C 10.832031 -67.011719 12.523438 -63.121094 12.523438 -52.289062 L 12.523438 -12.523438 C 12.523438 -3.214844 8.628906 -1.183594 3.382812 -1.183594 L 2.03125 -1.183594 L 2.03125 0 L 64.8125 0 L 64.8125 -1.183594 L 63.457031 -1.183594 C 54.320312 -1.183594 47.550781 -3.554688 47.550781 -14.214844 L 47.550781 -39.089844 C 47.550781 -68.195312 60.410156 -79.703125 68.871094 -79.703125 C 70.058594 -79.703125 70.734375 -79.363281 70.734375 -78.519531 C 70.734375 -74.796875 55.335938 -74.117188 55.335938 -60.074219 C 55.335938 -53.644531 59.902344 -47.890625 68.871094 -47.890625 C 79.027344 -47.890625 85.964844 -54.152344 85.964844 -64.132812 C 85.964844 -75.304688 79.535156 -80.886719 69.378906 -80.886719 Z M 69.378906 -80.886719 "/></g></g></g></svg>